<?xml version="1.0" encoding="utf-8"?>
<!-- Generator: Adobe Illustrator 27.5.0, SVG Export Plug-In . SVG Version: 6.00 Build 0)  -->
<svg version="1.1" xmlns="http://www.w3.org/2000/svg" xmlns:xlink="http://www.w3.org/1999/xlink" x="0px" y="0px"
	 viewBox="0 0 3710 3710" style="enable-background:new 0 0 3710 3710;" xml:space="preserve">
<g id="Background">
	<g>
		<g>
			<rect style="fill:#FFFFFF;" width="3710" height="3710"/>
		</g>
	</g>
</g>
<g id="Illustration">
	<g>
		<linearGradient id="SVGID_1_" gradientUnits="userSpaceOnUse" x1="3373.1321" y1="3616.9392" x2="1365.9407" y2="1450.4468">
			<stop  offset="0" style="stop-color:#B37CFF"/>
			<stop  offset="1" style="stop-color:#F895E7"/>
		</linearGradient>
		<path style="opacity:0.3;fill:url(#SVGID_1_);" d="M3110.073,2376.232c-279.579,636.922-1017.577,910.495-1595.809,863.85
			c-157.881-12.736-475.541-38.361-723.573-266.972c-476.328-439.033-402.969-1356.735,53.013-1897.027
			c58.721-69.578,465.18-535.746,1098.57-529.507c463.734,4.569,789.224,259.887,828.802,291.695
			c49.998,40.182,160.274,135.667,259.659,287.147C3264.255,1481.345,3284.782,1978.22,3110.073,2376.232z"/>
		<g>
			
				<linearGradient id="SVGID_00000033359072143113906390000010594599044636092801_" gradientUnits="userSpaceOnUse" x1="959.7889" y1="757.3967" x2="-1078.8663" y2="2434.686" gradientTransform="matrix(-0.9301 -0.3674 -0.3674 0.9301 2061.6738 274.0516)">
				<stop  offset="0" style="stop-color:#CB236D"/>
				<stop  offset="1" style="stop-color:#4C246D"/>
			</linearGradient>
			<path style="fill:url(#SVGID_00000033359072143113906390000010594599044636092801_);" d="M1635.196,2400.262
				c0,0,61.519-1141.717-290.872-1878.268c-23.689-49.512-92.657-53.435-121.518-6.748
				C1029.823,827.433,548.062,1804.893,1635.196,2400.262z"/>
			<path style="opacity:0.5;fill:#FFFFFF;" d="M1549.142,2300.129c1.855,3.314-2.78,6.326-5.063,3.291
				c-84.178-111.909-384.893-628.528-307.559-1458.789c0.249-2.667,4.24-2.535,4.222,0.143
				C1239.473,1042.136,1255.767,1776.058,1549.142,2300.129z"/>
		</g>
		<g>
			
				<linearGradient id="SVGID_00000008848585841448228410000005055475294272299687_" gradientUnits="userSpaceOnUse" x1="-115.4859" y1="1158.3901" x2="1499.769" y2="1158.3901" gradientTransform="matrix(-0.5227 -0.8525 -0.8525 0.5227 2233.2395 1660.6245)">
				<stop  offset="0" style="stop-color:#A737D5"/>
				<stop  offset="1" style="stop-color:#EF497A"/>
			</linearGradient>
			<path style="fill:url(#SVGID_00000008848585841448228410000005055475294272299687_);" d="M1075.766,2505.779
				c0,0,401.427-480.036,15.558-996.774c-241.137-322.919-305.988-529.328-320.712-638.739c-4.828-35.88-46.069-53.52-67.192-28.917
				C545.704,1025.056,227.807,1583.08,1075.766,2505.779z"/>
			<path style="opacity:0.5;fill:#FFFFFF;" d="M732.504,1224.618c-0.061-2.857-3.892-3.531-4.184-0.737
				c-10.796,103.009-8.153,551.833,330.879,1102.738c1.089,1.77,3.427,0.466,2.471-1.382
				C991.298,2189.079,742.159,1676.367,732.504,1224.618z"/>
		</g>
		<g>
			
				<linearGradient id="SVGID_00000164513046451094073750000017994462788290871192_" gradientUnits="userSpaceOnUse" x1="1614.0723" y1="683.2129" x2="2243.3193" y2="3316.7258">
				<stop  offset="0" style="stop-color:#53D8FF"/>
				<stop  offset="1" style="stop-color:#3840F7"/>
			</linearGradient>
			<path style="fill:url(#SVGID_00000164513046451094073750000017994462788290871192_);" d="M3138.199,2175.113
				c-26.505,603.773-576.311,1070.035-1228.025,1041.425S751.628,2675.28,778.134,2071.506
				c26.505-603.773,576.311-1070.035,1228.025-1041.425C2657.873,1058.692,3164.705,1571.34,3138.199,2175.113z"/>
			<ellipse style="opacity:0.13;fill:#FFFFFF;" cx="1894.239" cy="2044.359" rx="926.851" ry="875.579"/>
			<g style="opacity:0.68;">
				<path style="fill:#FFFFFF;" d="M2264.52,2128.594c-0.172,96.644-3.677,193.304-11.24,289.69
					c-7.808,96.36-19.797,192.431-37.028,287.648c-17.668,95.077-40.075,189.645-73.935,280.74
					c-17.199,45.367-37.117,90.098-64.147,131.119c-13.711,20.307-29.073,39.923-48.316,56.051
					c-9.608,8.014-20.162,15.176-31.841,20.416c-11.661,5.213-24.461,8.39-37.417,8.675c-12.954,0.439-25.938-2.101-37.804-6.893
					c-11.912-4.743-22.778-11.511-32.605-19.289c-19.612-15.694-35.578-34.925-49.364-55.19
					c-27.577-40.696-47.711-85.366-65.084-130.66c-34.302-90.94-56.811-185.496-74.655-280.531
					c-34.869-190.406-49.244-383.931-50.992-577.232c0.078-96.662,4.387-193.291,11.706-289.657
					c7.495-96.354,18.511-192.479,34.702-287.816c16.442-95.224,37.388-190.041,69.795-281.47
					c16.512-45.51,35.713-90.467,62.421-131.405c13.393-20.348,28.939-39.692,48.18-55.295c9.636-7.73,20.308-14.39,31.957-18.981
					c11.604-4.659,24.246-6.99,36.787-6.417c12.535,0.426,24.934,3.361,36.346,8.357c11.419,5.008,21.886,11.824,31.5,19.521
					c19.231,15.5,35.037,34.477,49.161,54.305c27.978,40.008,49.081,84.065,67.415,128.881
					c36.159,90.017,60.667,184.044,80.083,278.742c19.008,94.846,32.376,190.751,41.237,287.03
					C2259.97,1935.245,2264.112,2031.917,2264.52,2128.594z M2241.026,2128.594c0.254-96.038-3.2-192.113-11.072-287.828
					c-7.654-95.717-19.236-191.182-36.704-285.594c-17.57-94.303-40.23-188.018-74.363-277.599
					c-17.303-44.585-37.366-88.386-63.982-127.93c-13.425-19.59-28.466-38.265-46.558-53.381
					c-17.901-15.03-39.626-26.498-62.925-27.214c-23.323-0.917-45.507,9.881-63.339,24.803
					c-17.975,15.112-32.709,34.041-45.385,54.098c-25.31,40.342-43.487,84.992-58.974,130.227
					c-30.402,90.914-49.526,185.401-64.146,280.243c-28.602,190.029-37.465,382.639-36.519,574.685
					c-0.717,191.982,11.161,384.507,43.358,573.81c16.491,94.456,37.653,188.463,70.293,278.397
					c16.507,44.77,35.774,88.828,61.843,128.339c13.005,19.677,28.03,38.102,45.903,52.769c17.76,14.472,39.323,24.926,61.8,24.074
					c11.138-0.404,22.132-3.249,32.393-7.986c10.267-4.768,19.771-11.366,28.543-18.883c17.585-15.106,32.063-33.986,44.989-53.705
					c25.548-39.878,44.577-84.009,60.895-128.854c32.163-90.11,53.171-184.123,69.449-278.618
					c16.176-94.607,26.81-190.158,33.929-285.926C2237.771,2320.752,2241.054,2224.665,2241.026,2128.594z"/>
				<path style="fill:#FFFFFF;" d="M2752.075,2128.594c-0.798,124.744-16.96,249.522-50.481,369.795
					c-34.23,119.965-85.86,235.258-155.676,338.722c-69.718,103.255-158.477,194.756-264.399,261.127
					c-52.905,33.067-110.049,59.531-169.862,77.465c-59.777,17.976-122.176,27.32-184.606,27.32
					c-62.43,0.094-124.857-9.159-184.687-27.054c-59.865-17.852-117.085-44.245-170.079-77.258
					c-106.108-66.25-195.125-157.678-265.099-260.934c-70.046-103.491-121.852-218.864-156.342-338.928
					c-16.915-60.155-29.579-121.498-37.908-183.414c-8.267-61.925-12.437-124.371-12.754-186.842
					c0.381-62.468,4.614-124.908,12.944-186.815c8.394-61.898,21.135-123.213,38.115-183.329
					c34.628-119.984,86.566-235.231,156.686-338.543c70.026-103.089,159.013-194.36,265.051-260.33
					c105.758-65.768,229.241-104.308,354.073-104.042c124.833-0.099,248.21,38.611,353.776,104.51
					c105.848,66.099,194.579,157.438,264.349,260.526c69.89,103.29,121.655,218.453,156.019,338.341
					C2734.839,1879.109,2751.139,2003.853,2752.075,2128.594z M2725.143,2128.594c0.005-122.423-15.06-245.005-47.183-363.234
					c-32.172-118.076-80.606-232.209-147.622-334.918c-66.907-102.418-152.449-193.985-255.768-260.489
					c-51.76-32.834-107.651-59.349-166.316-77.227c-58.638-17.872-119.859-27.281-181.204-27.516
					c-61.347,0.321-122.541,9.816-181.13,27.763c-58.616,17.957-114.426,44.556-166.095,77.45
					c-103.128,66.631-188.414,158.264-255.065,260.683c-66.784,102.686-115.046,216.736-146.953,334.716
					c-15.962,59.044-27.409,119.246-35.226,179.865c-7.854,60.625-11.7,121.758-11.778,182.908
					c0.142,61.152,4.052,122.277,11.967,182.886c7.881,60.601,19.407,120.773,35.433,179.777
					c32.046,117.903,80.44,231.824,147.299,334.333c66.703,102.249,151.96,193.729,255.017,260.082
					c51.643,32.752,107.431,59.03,165.877,76.976c58.413,17.986,119.443,27.551,180.654,27.96
					c61.212-0.315,122.269-9.786,180.735-27.693c58.497-17.867,114.362-44.076,166.094-76.773
					c103.244-66.229,188.758-157.636,255.718-259.887c67.089-102.534,115.659-216.536,147.964-334.536
					C2709.807,2373.566,2725.01,2251.017,2725.143,2128.594z"/>
				<path style="fill:#FFFFFF;" d="M970.472,1703.709c82.06-1.519,164.12-2.169,246.18-3.271l246.18-1.853
					c82.06-0.79,164.12-0.705,246.18-0.949l246.18-0.547l246.18,0.623c82.061,0.376,164.121,0.171,246.18,1.023l246.18,2.025
					c82.061,1.202,164.12,1.905,246.18,3.531c0.657,0.014,1.178,0.556,1.165,1.212c-0.012,0.641-0.531,1.152-1.165,1.166
					c-82.061,1.627-164.12,2.329-246.18,3.531l-246.18,2.025c-82.06,0.853-164.12,0.647-246.18,1.023l-246.18,0.623l-246.18-0.547
					c-82.06-0.244-164.12-0.158-246.18-0.948l-246.18-1.854c-82.061-1.102-164.12-1.752-246.18-3.271
					c-0.978-0.018-1.756-0.826-1.738-1.803C968.752,1704.493,969.526,1703.728,970.472,1703.709z"/>
				<path style="fill:#FFFFFF;" d="M1256.071,1291.379c58.26-1.518,116.521-2.17,174.781-3.272l174.78-1.853
					c116.521-1.24,233.041-1.387,349.561-1.517c116.521,0.12,233.041,0.394,349.562,1.669l174.78,2.023
					c58.26,1.202,116.521,1.905,174.781,3.533c0.656,0.018,1.174,0.565,1.156,1.222c-0.018,0.633-0.531,1.137-1.156,1.155
					c-58.26,1.628-116.521,2.331-174.781,3.533l-174.78,2.023c-116.521,1.274-233.042,1.549-349.562,1.669
					c-116.521-0.13-233.041-0.277-349.561-1.517l-174.78-1.853c-58.26-1.102-116.521-1.754-174.781-3.272
					c-0.978-0.026-1.75-0.839-1.724-1.816C1254.371,1292.158,1255.136,1291.405,1256.071,1291.379z"/>
				<path style="fill:#FFFFFF;" d="M884.922,2116.04c89.189-1.518,178.379-2.17,267.568-3.27l267.568-1.855
					c89.189-0.788,178.378-0.703,267.568-0.949l267.568-0.545l267.568,0.621c89.189,0.376,178.378,0.173,267.568,1.025
					l267.568,2.024c89.189,1.2,178.378,1.904,267.568,3.531c0.657,0.012,1.179,0.554,1.167,1.209
					c-0.012,0.642-0.531,1.155-1.167,1.167c-89.19,1.627-178.379,2.331-267.568,3.534l-267.568,2.022
					c-89.19,0.855-178.379,0.649-267.568,1.025l-267.568,0.624l-267.568-0.548c-89.19-0.243-178.379-0.158-267.568-0.949
					l-267.568-1.852c-89.189-1.103-178.379-1.755-267.568-3.273c-0.978-0.016-1.757-0.822-1.741-1.801
					C883.198,2116.825,883.973,2116.058,884.922,2116.04z"/>
				<path style="fill:#FFFFFF;" d="M970.472,2528.371c82.06-1.518,164.12-2.17,246.18-3.27l246.18-1.855
					c82.06-0.788,164.12-0.703,246.18-0.948l246.18-0.545l246.18,0.621c82.061,0.376,164.121,0.173,246.18,1.024l246.18,2.025
					c82.061,1.2,164.12,1.904,246.18,3.531c0.657,0.012,1.178,0.554,1.165,1.212c-0.012,0.639-0.531,1.151-1.165,1.164
					c-82.061,1.627-164.12,2.331-246.18,3.531l-246.18,2.025c-82.06,0.855-164.12,0.649-246.18,1.024l-246.18,0.622l-246.18-0.546
					c-82.06-0.245-164.12-0.16-246.18-0.948l-246.18-1.855c-82.061-1.101-164.12-1.752-246.18-3.271
					c-0.978-0.018-1.756-0.824-1.738-1.803C968.752,2529.153,969.526,2528.389,970.472,2528.371z"/>
				<path style="fill:#FFFFFF;" d="M2689.542,2948.679H1291.296c-3.428,0-6.207-2.776-6.207-6.207c0-3.431,2.78-6.207,6.207-6.207
					h1398.245c3.427,0,6.207,2.776,6.207,6.207C2695.749,2945.904,2692.969,2948.679,2689.542,2948.679z"/>
			</g>
		</g>
		<g>
			<g>
				<g style="opacity:0.3;">
					
						<linearGradient id="SVGID_00000161631038145589711570000018163298089972670638_" gradientUnits="userSpaceOnUse" x1="667.46" y1="-2951.1924" x2="1229.4904" y2="-2951.1924" gradientTransform="matrix(-0.9119 0.4103 -0.4103 -0.9119 2473.2373 -129.7328)">
						<stop  offset="0" style="stop-color:#B37CFF"/>
						<stop  offset="1" style="stop-color:#F895E7"/>
					</linearGradient>
					<path style="fill:url(#SVGID_00000161631038145589711570000018163298089972670638_);" d="M2973.596,2637.838
						c4.542-2.043,9.987-0.367,12.546,4.032c5.601,9.618,10.865,19.624,15.649,29.736c2.328,4.92,0.227,10.795-4.691,13.122
						c-0.06,0.027-0.117,0.053-0.175,0.079c-4.882,2.197-10.646,0.089-12.946-4.772c-4.545-9.608-9.547-19.111-14.865-28.249
						c-2.739-4.702-1.146-10.736,3.558-13.473C2972.974,2638.135,2973.283,2637.979,2973.596,2637.838z M3008.239,2716.375
						c0.351-0.158,0.717-0.297,1.094-0.416c5.19-1.635,10.725,1.248,12.359,6.438c3.356,10.662,6.29,21.573,8.719,32.428
						c1.189,5.311-2.137,10.559-7.463,11.77c-5.311,1.187-10.579-2.157-11.766-7.464c-2.309-10.319-5.097-20.683-8.289-30.816
						C3001.377,2723.502,3003.748,2718.396,3008.239,2716.375z M3024.728,2800.588c1-0.45,2.094-0.74,3.25-0.833
						c5.424-0.436,10.177,3.604,10.615,9.029c0.9,11.117,1.326,22.414,1.266,33.574c-0.033,5.442-4.47,9.824-9.906,9.801
						c-5.441-0.03-9.83-4.466-9.801-9.906c0.057-10.598-0.347-21.323-1.201-31.882
						C3018.606,2806.103,3021.035,2802.25,3024.728,2800.588z M3021.971,2886.391c1.653-0.744,3.531-1.04,5.457-0.759
						c5.384,0.785,9.113,5.788,8.328,11.172c-1.614,11.045-3.723,22.153-6.27,33.015c-1.246,5.292-6.545,8.58-11.844,7.343
						c-5.297-1.242-8.584-6.545-7.343-11.844c2.42-10.315,4.425-20.865,5.954-31.362
						C3016.76,2890.499,3019.003,2887.726,3021.971,2886.391z M3000.15,2969.423c2.318-1.043,5.036-1.194,7.594-0.205
						c5.078,1.961,7.603,7.666,5.64,12.741c-4.013,10.385-8.527,20.748-13.42,30.792c-2.379,4.894-8.276,6.932-13.171,4.547
						c-4.891-2.383-6.927-8.279-4.545-13.174c4.652-9.546,8.942-19.395,12.756-29.265
						C2995.976,2972.339,2997.869,2970.449,3000.15,2969.423z M2960.507,3045.554c3.003-1.351,6.613-1.169,9.547,0.803
						c4.517,3.037,5.718,9.156,2.684,13.674c-6.22,9.256-12.916,18.364-19.902,27.061c-3.41,4.244-9.61,4.919-13.854,1.511
						c-4.241-3.405-4.919-9.608-1.512-13.851c6.638-8.266,13-16.915,18.91-25.711
						C2957.445,3047.456,2958.888,3046.283,2960.507,3045.554z M2640.876,3215.102c1.244-0.56,2.623-0.868,4.075-0.863
						c10.586,0.04,21.317-0.383,31.892-1.258c5.422-0.448,10.183,3.584,10.63,9.005c0.45,5.423-3.582,10.184-9.006,10.632
						c-11.137,0.922-22.439,1.368-33.586,1.328c-5.443-0.02-9.837-4.449-9.817-9.89
						C2635.076,3220.067,2637.461,3216.639,2640.876,3215.102z M2905.015,3110.965c3.727-1.677,8.263-0.907,11.22,2.236
						c3.729,3.965,3.538,10.2-0.424,13.928c-8.123,7.643-16.678,15.025-25.427,21.942c-4.283,3.354-10.465,2.654-13.841-1.618
						c-3.375-4.268-2.649-10.465,1.619-13.842c8.31-6.567,16.433-13.577,24.147-20.834
						C2903.129,3112.008,2904.044,3111.402,2905.015,3110.965z M2726.197,3205.74c0.593-0.267,1.22-0.482,1.879-0.631
						c10.333-2.332,20.701-5.145,30.818-8.351c5.189-1.643,10.727,1.23,12.371,6.416c1.642,5.187-1.216,10.748-6.416,12.37
						c-10.646,3.372-21.556,6.332-32.428,8.789c-5.309,1.198-10.585-2.133-11.783-7.44
						C2719.588,3212.246,2722.013,3207.622,2726.197,3205.74z M2836.302,3162.341c4.535-2.041,9.972-0.372,12.537,4.015
						c2.747,4.698,1.166,10.732-3.531,13.482c-9.618,5.624-19.609,10.908-29.696,15.7c-0.061,0.032-0.126,0.061-0.189,0.09
						c-4.875,2.194-10.631,0.094-12.938-4.755c-2.337-4.917-0.248-10.794,4.669-13.129c9.58-4.555,19.069-9.576,28.207-14.921
						C2835.67,3162.646,2835.984,3162.483,2836.302,3162.341z"/>
					
						<linearGradient id="SVGID_00000083797527986769665910000001053052909441940926_" gradientUnits="userSpaceOnUse" x1="1256.8131" y1="-3099.241" x2="1289.6383" y2="-3099.241" gradientTransform="matrix(-0.9119 0.4103 -0.4103 -0.9119 2473.2373 -129.7328)">
						<stop  offset="0" style="stop-color:#B37CFF"/>
						<stop  offset="1" style="stop-color:#F895E7"/>
					</linearGradient>
					<path style="fill:url(#SVGID_00000083797527986769665910000001053052909441940926_);" d="M2571.995,3208.589
						c1.769-0.796,3.791-1.081,5.844-0.697c4.994,0.935,10.089,1.778,15.148,2.515c5.384,0.781,9.118,5.782,8.335,11.165
						c-0.78,5.386-5.78,9.126-11.168,8.334c-5.321-0.771-10.68-1.66-15.935-2.642c-5.348-1-8.876-6.148-7.875-11.494
						C2566.959,3212.471,2569.152,3209.868,2571.995,3208.589z"/>
				</g>
				<g style="opacity:0.3;">
					
						<linearGradient id="SVGID_00000168111785550826706150000013808592880978692540_" gradientUnits="userSpaceOnUse" x1="1427.1984" y1="-2848.4211" x2="1449.7236" y2="-2848.4211" gradientTransform="matrix(-0.9119 0.4103 -0.4103 -0.9119 2473.2373 -129.7328)">
						<stop  offset="0" style="stop-color:#B37CFF"/>
						<stop  offset="1" style="stop-color:#F895E7"/>
					</linearGradient>
					<path style="fill:url(#SVGID_00000168111785550826706150000013808592880978692540_);" d="M2321.714,3042.458
						c4.337-1.951,9.569-0.524,12.266,3.576c2.79,4.244,5.717,8.502,8.698,12.652c3.175,4.421,2.166,10.577-2.253,13.752
						c-4.439,3.188-10.578,2.164-13.752-2.254c-3.137-4.37-6.221-8.853-9.159-13.322c-2.99-4.547-1.727-10.656,2.819-13.647
						C2320.779,3042.921,2321.242,3042.671,2321.714,3042.458z"/>
					
						<linearGradient id="SVGID_00000082331405117628784030000005177322491252838311_" gradientUnits="userSpaceOnUse" x1="875.6344" y1="-2592.2024" x2="1454.5398" y2="-2592.2024" gradientTransform="matrix(-0.9119 0.4103 -0.4103 -0.9119 2473.2373 -129.7328)">
						<stop  offset="0" style="stop-color:#B37CFF"/>
						<stop  offset="1" style="stop-color:#F895E7"/>
					</linearGradient>
					<path style="fill:url(#SVGID_00000082331405117628784030000005177322491252838311_);" d="M2484.369,2481.566
						c4.134-1.86,8.316-3.657,12.544-5.391c5.035-2.063,10.791,0.344,12.856,5.379c2.065,5.035-0.359,10.819-5.376,12.857
						c-9.757,4.002-19.33,8.39-28.558,13.099c-4.855,2.468-10.781,0.55-13.255-4.296c-2.475-4.85-0.55-10.785,4.297-13.258
						C2472.585,2487.042,2478.47,2484.22,2484.369,2481.566z M2546.28,2459.773c0.502-0.226,1.031-0.413,1.583-0.556
						c10.642-2.758,21.52-5.095,32.329-6.946c5.362-0.919,10.456,2.685,11.374,8.046c0.918,5.365-2.69,10.474-8.05,11.375
						c-10.267,1.758-20.599,3.981-30.713,6.599c-5.267,1.365-10.643-1.799-12.008-7.064
						C2539.574,2466.509,2541.982,2461.707,2546.28,2459.773z M2422.438,2516.671c4.236-1.906,9.361-0.595,12.115,3.353
						c3.113,4.466,2.016,10.606-2.447,13.721c-8.54,5.952-16.939,12.353-24.967,19.03c-4.19,3.472-10.398,2.906-13.876-1.277
						c-3.479-4.187-2.907-10.4,1.278-13.878c8.454-7.029,17.302-13.77,26.294-20.04
						C2421.349,2517.221,2421.887,2516.919,2422.438,2516.671z M2629.906,2447.717c1.141-0.513,2.398-0.813,3.725-0.857
						c10.978-0.352,22.103-0.239,33.066,0.337c5.433,0.286,9.606,4.921,9.32,10.354c-0.284,5.437-4.916,9.611-10.355,9.323
						c-10.409-0.545-20.973-0.654-31.399-0.319c-5.438,0.177-9.99-4.094-10.164-9.531
						C2623.967,2452.913,2626.373,2449.306,2629.906,2447.717z M2358.965,2572.329c3.475-1.564,7.697-1.024,10.692,1.71
						c4.019,3.669,4.302,9.903,0.632,13.922c-7.017,7.681-13.802,15.774-20.171,24.051c-3.318,4.313-9.505,5.121-13.819,1.799
						c-4.311-3.319-5.116-9.502-1.798-13.815c6.704-8.715,13.848-17.234,21.236-25.324
						C2356.671,2573.647,2357.775,2572.864,2358.965,2572.329z M2309.24,2640.567c2.778-1.25,6.095-1.198,8.942,0.429
						c4.723,2.703,6.362,8.723,3.659,13.446c-5.181,9.059-10.042,18.442-14.447,27.886c-2.293,4.936-8.153,7.07-13.093,4.768
						c-4.933-2.301-7.065-8.161-4.768-13.095c4.635-9.94,9.75-19.813,15.204-29.345
						C2305.811,2642.781,2307.407,2641.392,2309.24,2640.567z M2275.574,2718.023c2.113-0.951,4.566-1.164,6.954-0.424
						c5.197,1.608,8.107,7.127,6.498,12.325c-3.09,9.979-5.793,20.193-8.031,30.367c-1.169,5.312-6.42,8.675-11.741,7.503
						c-5.313-1.172-8.673-6.425-7.504-11.742c2.358-10.705,5.2-21.459,8.451-31.958
						C2271.072,2721.286,2273.086,2719.143,2275.574,2718.023z M2259.604,2800.972c1.464-0.659,3.108-0.968,4.822-0.832
						c5.424,0.433,9.468,5.181,9.035,10.605c-0.833,10.407-1.23,20.964-1.18,31.383c0.026,5.441-4.371,9.876-9.803,9.902
						c-5.443,0.027-9.876-4.365-9.901-9.806c-0.053-10.975,0.365-22.094,1.241-33.048
						C2254.115,2805.464,2256.432,2802.399,2259.604,2800.972z M2262.233,2885.436c0.823-0.37,1.712-0.631,2.65-0.766
						c5.385-0.773,10.38,2.968,11.15,8.353c1.479,10.308,3.417,20.688,5.765,30.858c1.224,5.303-2.1,10.594-7.385,11.815
						c-5.302,1.225-10.594-2.083-11.817-7.386c-2.47-10.706-4.512-21.634-6.067-32.486
						C2255.891,2891.375,2258.33,2887.192,2262.233,2885.436z M2283.34,2967.203c0.184-0.083,0.374-0.159,0.564-0.233
						c5.088-1.927,10.777,0.637,12.702,5.726c2.719,7.184,5.692,14.367,8.839,21.359c1.139,2.531,2.306,5.044,3.492,7.536
						c2.34,4.915,0.255,10.795-4.659,13.133c-4.928,2.466-10.791,0.255-13.131-4.655c-1.25-2.624-2.474-5.264-3.673-7.928
						c-3.309-7.353-6.437-14.914-9.296-22.469C2276.323,2974.775,2278.628,2969.323,2283.34,2967.203z"/>
					
						<linearGradient id="SVGID_00000106863943625069282650000017326731073445699253_" gradientUnits="userSpaceOnUse" x1="817.9279" y1="-2470.1665" x2="850.3343" y2="-2470.1665" gradientTransform="matrix(-0.9119 0.4103 -0.4103 -0.9119 2473.2373 -129.7328)">
						<stop  offset="0" style="stop-color:#B37CFF"/>
						<stop  offset="1" style="stop-color:#F895E7"/>
					</linearGradient>
					<path style="fill:url(#SVGID_00000106863943625069282650000017326731073445699253_);" d="M2714.364,2454.421
						c1.787-0.804,3.827-1.085,5.894-0.69c5.239,1.007,10.555,2.143,15.802,3.378c5.298,1.246,8.582,6.55,7.335,11.847
						c-1.248,5.297-6.545,8.584-11.847,7.336c-4.984-1.172-10.034-2.251-15.008-3.208c-5.342-1.023-8.843-6.188-7.817-11.533
						C2709.354,2458.275,2711.539,2455.693,2714.364,2454.421z"/>
				</g>
				<g>
					
						<linearGradient id="SVGID_00000153665336844156369740000015945573906429180043_" gradientUnits="userSpaceOnUse" x1="2395.5374" y1="-2196.8357" x2="330.5606" y2="-3103.4092" gradientTransform="matrix(-0.9119 0.4103 -0.4103 -0.9119 2473.2373 -129.7328)">
						<stop  offset="0" style="stop-color:#A737D5"/>
						<stop  offset="1" style="stop-color:#EF497A"/>
					</linearGradient>
					<path style="fill:url(#SVGID_00000153665336844156369740000015945573906429180043_);" d="M2749.135,2564.097
						c-1.757-0.878-3.879-0.545-5.282,0.83l-40.034,39.227c-25.465-6.055-52.079-8.094-78.903-5.625l-34.073-44.457
						c-1.195-1.56-3.248-2.189-5.112-1.567l-63.778,21.268c-1.864,0.622-3.128,2.358-3.148,4.321l-0.57,56.01
						c-22.937,14.126-43,31.729-59.734,51.857l-55.566-7.348c-1.947-0.257-3.844,0.749-4.722,2.506l-30.059,60.136
						c-0.879,1.759-0.545,3.88,0.83,5.282l39.227,40.034c-6.055,25.465-8.093,52.08-5.625,78.903l-44.458,34.074
						c-1.559,1.195-2.188,3.247-1.567,5.111l21.268,63.779c0.621,1.864,2.357,3.128,4.322,3.147l56.01,0.571
						c14.125,22.937,31.728,43.001,51.856,59.734l-7.348,55.567c-0.257,1.946,0.749,3.844,2.506,4.722l60.136,30.059
						c1.758,0.88,3.879,0.545,5.282-0.829l40.034-39.228c25.465,6.056,52.079,8.094,78.903,5.625l34.074,44.458
						c1.195,1.559,3.247,2.188,5.111,1.568l63.778-21.269c1.864-0.621,3.128-2.356,3.148-4.322l0.571-56.01
						c22.937-14.124,43.001-31.729,59.734-51.856l55.565,7.348c1.948,0.258,3.845-0.749,4.723-2.506l30.058-60.136
						c0.878-1.757,0.545-3.878-0.829-5.282l-39.227-40.034c6.056-25.465,8.093-52.08,5.625-78.903l44.458-34.074
						c1.559-1.194,2.189-3.248,1.566-5.112l-21.268-63.777c-0.622-1.864-2.357-3.128-4.322-3.149l-56.01-0.57
						c-14.125-22.936-31.728-43-51.856-59.734l7.347-55.566c0.258-1.948-0.748-3.844-2.506-4.723L2749.135,2564.097z"/>
					<path style="opacity:0.56;fill:#FFFFFF;" d="M2619.531,2781.518c30.041-13.518,66.345-3.327,84.616,25.229
						c20.083,31.392,10.882,73.263-20.506,93.346c-15.205,9.733-33.291,12.954-50.917,9.081
						c-17.631-3.872-32.699-14.378-42.426-29.585c-20.083-31.392-10.882-73.263,20.505-93.345
						C2613.635,2784.433,2616.554,2782.858,2619.531,2781.518z M2668.388,2890.472c2.32-1.044,4.576-2.262,6.759-3.658
						c24.066-15.396,31.117-47.504,15.723-71.569c-15.398-24.067-47.503-31.133-71.571-15.723
						c-24.066,15.395-31.117,47.504-15.723,71.568c7.46,11.66,19.011,19.715,32.53,22.685
						C2647.093,2896.188,2658.313,2895.005,2668.388,2890.472z"/>
					<path style="opacity:0.56;fill:#FFFFFF;" d="M2578.22,2693.075c5.159-2.322,10.466-4.397,15.906-6.212l0,0
						c1.712-0.572,3.434-1.115,5.164-1.632c8.531-2.543,17.252-4.403,26.026-5.553c0.119-0.016,0.239-0.031,0.358-0.048
						c0.339-0.043,0.679-0.086,1.02-0.125c0.661-0.082,1.324-0.157,1.985-0.231c1.741-0.192,3.341,0.78,4.025,2.295
						c0.166,0.368,0.277,0.77,0.323,1.192c0.239,2.163-1.327,4.104-3.487,4.346c-11.134,1.224-22.209,3.658-32.919,7.233
						c-53.211,17.735-90.76,61.169-103.481,111.917c-7.079,28.226-6.472,58.716,3.397,88.309c1.729,5.19,3.709,10.254,5.925,15.174
						c14.906,33.117,40.535,59.878,73.459,76.333c37.818,18.904,80.735,21.949,120.841,8.574
						c82.829-27.63,127.693-117.435,100.083-200.227c-1.702-5.105-3.656-10.105-5.852-14.979
						c-9.51-21.125-23.536-39.934-41.138-55.028c-0.454-0.391-0.798-0.86-1.028-1.373c-0.606-1.348-0.426-2.986,0.602-4.183
						c1.423-1.649,3.903-1.849,5.559-0.425c18.48,15.847,33.208,35.594,43.192,57.771c2.304,5.117,4.355,10.364,6.144,15.721
						c28.988,86.924-18.174,181.223-105.066,210.201c-42.106,14.042-87.158,10.844-126.859-9.002
						c-34.565-17.274-61.469-45.369-77.12-80.135c-2.325-5.167-4.402-10.482-6.22-15.928
						c-14.041-42.108-10.845-87.161,8.999-126.862C2515.338,2735.63,2543.444,2708.723,2578.22,2693.075z"/>
				</g>
			</g>
			<g>
				<g style="opacity:0.3;">
					
						<linearGradient id="SVGID_00000109016910027880305190000006019843120023479429_" gradientUnits="userSpaceOnUse" x1="333.1405" y1="-2483.0654" x2="349.161" y2="-2483.0654" gradientTransform="matrix(-0.9119 0.4103 -0.4103 -0.9119 2473.2373 -129.7328)">
						<stop  offset="0" style="stop-color:#B37CFF"/>
						<stop  offset="1" style="stop-color:#F895E7"/>
					</linearGradient>
					<path style="fill:url(#SVGID_00000109016910027880305190000006019843120023479429_);" d="M3173.676,2263.075
						c2.401-1.08,5.317-0.51,7.117,1.594c3.361,3.923,6.65,8.002,9.773,12.123c2.029,2.678,1.504,6.492-1.176,8.525
						c-2.675,2.044-6.496,1.502-8.526-1.175c-2.975-3.927-6.11-7.815-9.317-11.56c-2.186-2.549-1.888-6.39,0.662-8.581
						C3172.665,2263.615,3173.158,2263.308,3173.676,2263.075z"/>
					
						<linearGradient id="SVGID_00000060729097611714164580000007529229720949436066_" gradientUnits="userSpaceOnUse" x1="326.6532" y1="-2663.043" x2="640.6268" y2="-2663.043" gradientTransform="matrix(-0.9119 0.4103 -0.4103 -0.9119 2473.2373 -129.7328)">
						<stop  offset="0" style="stop-color:#B37CFF"/>
						<stop  offset="1" style="stop-color:#F895E7"/>
					</linearGradient>
					<path style="fill:url(#SVGID_00000060729097611714164580000007529229720949436066_);" d="M3200.74,2301.272
						c2.813-1.266,6.183-0.221,7.758,2.505c4.456,7.699,8.565,15.717,12.213,23.824c0.768,1.707,1.519,3.428,2.258,5.162
						c1.313,3.098-0.345,6.626-3.22,7.985c-3.094,1.314-6.666-0.129-7.982-3.219c-0.704-1.658-1.421-3.304-2.155-4.935
						c-3.48-7.734-7.4-15.381-11.646-22.724c-1.685-2.911-0.69-6.63,2.217-8.316
						C3200.368,2301.453,3200.553,2301.356,3200.74,2301.272z M3225.444,2359.431c0.262-0.118,0.539-0.223,0.821-0.304
						c3.233-0.927,6.604,0.939,7.533,4.17c2.981,10.364,5.345,21.004,7.024,31.621c0.527,3.321-1.758,6.435-5.059,6.962
						c-3.323,0.524-6.435-1.738-6.962-5.059c-1.602-10.13-3.859-20.278-6.7-30.163
						C3221.255,2363.714,3222.729,2360.653,3225.444,2359.431z M3235.306,2421.844c0.704-0.317,1.481-0.503,2.299-0.532
						c3.359-0.11,6.169,2.529,6.279,5.888c0.346,10.761,0.025,21.664-0.964,32.399c-0.307,3.351-3.262,5.808-6.619,5.501
						c-3.344-0.307-5.809-3.271-5.502-6.615c0.942-10.238,1.252-20.629,0.918-30.893
						C3231.637,2425.052,3233.125,2422.825,3235.306,2421.844z M3229.522,2484.774c1.149-0.517,2.467-0.68,3.791-0.396
						c3.282,0.719,5.366,3.965,4.647,7.248c-2.306,10.539-5.285,21.023-8.86,31.168c-1.119,3.169-4.6,4.826-7.762,3.714
						c-3.17-1.115-4.834-4.589-3.718-7.763c3.408-9.667,6.251-19.672,8.449-29.719
						C3226.497,2487.066,3227.823,2485.538,3229.522,2484.774z M3208.545,2544.38c1.604-0.722,3.51-0.745,5.21,0.099
						c3.008,1.494,4.234,5.146,2.741,8.157c-4.796,9.646-10.23,19.091-16.157,28.065c-1.849,2.813-5.626,3.581-8.431,1.728
						c-2.805-1.853-3.579-5.629-1.727-8.43c5.654-8.566,10.839-17.573,15.412-26.78
						C3206.246,2545.91,3207.307,2544.937,3208.545,2544.38z M3173.741,2597.083c2.078-0.935,4.602-0.656,6.453,0.922
						c2.555,2.181,2.855,6.021,0.676,8.578c-6.995,8.192-14.569,16.025-22.51,23.274c-2.497,2.264-6.333,2.087-8.6-0.393
						c-2.266-2.48-2.09-6.332,0.391-8.596c7.573-6.914,14.792-14.378,21.46-22.188
						C3172.215,2597.971,3172.947,2597.44,3173.741,2597.083z M3127.12,2639.665c2.601-1.17,5.75-0.379,7.458,2.034
						c1.942,2.743,1.292,6.542-1.45,8.486c-8.763,6.205-18.031,11.938-27.546,17.048c-2.994,1.543-6.656,0.473-8.242-2.489
						c-1.59-2.96-0.476-6.648,2.483-8.24c9.081-4.868,17.919-10.338,26.274-16.254
						C3126.424,2640.016,3126.768,2639.823,3127.12,2639.665z M3041.273,2679.14c0.32-0.144,0.66-0.264,1.015-0.353
						c8.603-2.17,17.238-4.85,25.667-7.965c1.28-0.465,2.53-0.936,3.771-1.423c3.135-1.215,6.66,0.333,7.878,3.467
						c1.226,3.137-0.311,6.761-3.463,7.88c-1.327,0.512-2.654,1.018-3.995,1.505c-8.808,3.252-17.86,6.062-26.882,8.336
						c-3.26,0.822-6.566-1.152-7.388-4.412C3037.143,2683.272,3038.631,2680.329,3041.273,2679.14z"/>
				</g>
				<g style="opacity:0.3;">
					
						<linearGradient id="SVGID_00000033348475719446130260000003083216577804341151_" gradientUnits="userSpaceOnUse" x1="466.7847" y1="-2362.0544" x2="825.1423" y2="-2362.0544" gradientTransform="matrix(-0.9119 0.4103 -0.4103 -0.9119 2473.2373 -129.7328)">
						<stop  offset="0" style="stop-color:#B37CFF"/>
						<stop  offset="1" style="stop-color:#F895E7"/>
					</linearGradient>
					<path style="fill:url(#SVGID_00000033348475719446130260000003083216577804341151_);" d="M2870.006,2197.477
						c3.03-1.363,6.604-0.039,8.012,2.983c1.418,3.044,0.1,6.668-2.948,8.084c-9.173,4.271-18.163,9.138-26.72,14.467
						c-2.851,1.739-6.607,0.908-8.384-1.949c-1.778-2.856-0.901-6.607,1.949-8.385c8.977-5.583,18.399-10.69,28.015-15.167
						C2869.954,2197.5,2869.982,2197.488,2870.006,2197.477z M2898.969,2186.054c0.201-0.09,0.404-0.168,0.616-0.238
						c10.07-3.293,20.443-6.005,30.829-8.065c3.298-0.65,6.498,1.488,7.151,4.785c0.658,3.302-1.507,6.498-4.782,7.157
						c-9.912,1.964-19.809,4.553-29.419,7.692c-3.193,1.045-6.63-0.699-7.673-3.892
						C2894.715,2190.503,2896.172,2187.312,2898.969,2186.054z M2817.265,2230.332c2.461-1.107,5.451-0.471,7.229,1.726
						c2.11,2.609,1.706,6.44-0.908,8.555c-7.871,6.37-15.419,13.266-22.437,20.51c-2.354,2.408-6.192,2.473-8.605,0.131
						c-2.413-2.336-2.474-6.192-0.135-8.606c7.357-7.592,15.273-14.823,23.525-21.495
						C2816.351,2230.815,2816.799,2230.542,2817.265,2230.332z M2959.963,2174.002c0.631-0.284,1.322-0.465,2.053-0.52
						c10.573-0.775,21.302-0.904,31.883-0.38c3.358,0.164,5.944,3.021,5.78,6.379c-0.169,3.347-3.025,5.936-6.378,5.776
						c-10.09-0.497-20.315-0.373-30.397,0.364c-3.351,0.244-6.269-2.275-6.513-5.626
						C2956.2,2177.376,2957.698,2175.021,2959.963,2174.002z M2774.034,2274.96c1.965-0.884,4.34-0.696,6.175,0.695
						c2.684,2.031,3.208,5.848,1.181,8.527c-6.099,8.049-11.766,16.555-16.844,25.292c-1.691,2.911-5.418,3.891-8.323,2.2
						c-2.905-1.691-3.891-5.417-2.201-8.323c5.33-9.156,11.269-18.078,17.661-26.52
						C2772.321,2275.991,2773.137,2275.363,2774.034,2274.96z M2742.769,2328.657c1.504-0.677,3.273-0.743,4.905-0.042
						c3.087,1.328,4.516,4.908,3.187,7.995c-4,9.301-7.47,18.924-10.315,28.598c-0.949,3.229-4.335,5.073-7.555,4.123
						c-3.225-0.947-5.068-4.327-4.121-7.55c2.981-10.146,6.618-20.234,10.809-29.98
						C2740.304,2330.347,2741.43,2329.259,2742.769,2328.657z M2725.267,2388.303c1.057-0.475,2.259-0.658,3.49-0.449
						c3.316,0.548,5.558,3.684,5.008,7c-1.664,9.983-2.722,20.157-3.15,30.236c-0.147,3.351-2.983,5.963-6.34,5.818
						c-3.359-0.144-5.964-2.979-5.822-6.341c0.453-10.566,1.562-21.238,3.301-31.711
						C2722.102,2390.77,2723.473,2389.11,2725.267,2388.303z"/>
					
						<linearGradient id="SVGID_00000084509518258438338060000016542411945405861800_" gradientUnits="userSpaceOnUse" x1="427.3895" y1="-2339.6309" x2="451.8983" y2="-2339.6309" gradientTransform="matrix(-0.9119 0.4103 -0.4103 -0.9119 2473.2373 -129.7328)">
						<stop  offset="0" style="stop-color:#B37CFF"/>
						<stop  offset="1" style="stop-color:#F895E7"/>
					</linearGradient>
					<path style="fill:url(#SVGID_00000084509518258438338060000016542411945405861800_);" d="M3022.338,2177.092
						c1.071-0.482,2.291-0.659,3.535-0.443c5.132,0.891,10.26,1.939,15.245,3.111c3.27,0.771,5.301,4.047,4.532,7.319
						c-0.778,3.263-4.047,5.294-7.32,4.531c-4.753-1.12-9.646-2.118-14.543-2.971c-3.312-0.575-5.529-3.729-4.953-7.038
						C3019.196,2179.536,3020.558,2177.893,3022.338,2177.092z"/>
				</g>
				<g>
					
						<linearGradient id="SVGID_00000106137186531397614280000017103541950885053349_" gradientUnits="userSpaceOnUse" x1="2233.5337" y1="-1828.3586" x2="168.5583" y2="-2734.9314" gradientTransform="matrix(-0.9119 0.4103 -0.4103 -0.9119 2473.2373 -129.7328)">
						<stop  offset="0" style="stop-color:#A737D5"/>
						<stop  offset="1" style="stop-color:#EF497A"/>
					</linearGradient>
					<path style="fill:url(#SVGID_00000106137186531397614280000017103541950885053349_);" d="M3049.985,2250.861
						c-1.175-0.588-2.595-0.365-3.534,0.555l-26.789,26.249c-17.04-4.052-34.849-5.416-52.798-3.764l-22.801-29.748
						c-0.799-1.044-2.173-1.465-3.42-1.049l-42.677,14.231c-1.248,0.416-2.093,1.578-2.107,2.892l-0.381,37.479
						c-15.348,9.452-28.774,21.231-39.971,34.7l-37.182-4.917c-1.303-0.172-2.573,0.501-3.16,1.678l-20.114,40.24
						c-0.588,1.177-0.365,2.596,0.555,3.535l26.249,26.789c-4.052,17.04-5.416,34.849-3.764,52.799l-29.749,22.8
						c-1.043,0.8-1.465,2.173-1.049,3.42l14.232,42.677c0.416,1.248,1.578,2.094,2.892,2.106l37.479,0.382
						c9.452,15.349,21.231,28.774,34.7,39.971l-4.916,37.183c-0.172,1.302,0.501,2.572,1.677,3.159l40.241,20.114
						c1.176,0.588,2.595,0.365,3.534-0.555l26.789-26.25c17.04,4.053,34.849,5.416,52.798,3.764l22.801,29.75
						c0.8,1.043,2.173,1.465,3.42,1.049l42.678-14.232c1.247-0.416,2.093-1.577,2.106-2.892l0.381-37.479
						c15.349-9.452,28.775-21.231,39.972-34.7l37.181,4.917c1.304,0.173,2.573-0.501,3.161-1.677l20.114-40.24
						c0.587-1.176,0.365-2.595-0.555-3.534l-26.248-26.789c4.052-17.04,5.415-34.849,3.763-52.798l29.75-22.8
						c1.042-0.799,1.465-2.173,1.048-3.42l-14.231-42.677c-0.417-1.247-1.577-2.093-2.892-2.107l-37.48-0.382
						c-9.452-15.348-21.231-28.774-34.699-39.971l4.916-37.182c0.172-1.303-0.501-2.572-1.677-3.16L3049.985,2250.861z"/>
					<path style="opacity:0.56;fill:#FFFFFF;" d="M2962.987,2395.578c8.953-4.028,18.92-5.079,28.682-2.936
						c12.009,2.638,22.272,9.797,28.897,20.156c13.677,21.373,7.413,49.895-13.965,63.581c-21.434,13.659-49.909,7.41-63.586-13.969
						c-6.629-10.358-8.825-22.677-6.185-34.683c2.637-12.011,9.794-22.276,20.156-28.901
						C2958.922,2397.589,2960.93,2396.504,2962.987,2395.578z M2995.669,2468.492c1.493-0.672,2.953-1.46,4.374-2.366
						c15.725-10.067,20.332-31.045,10.27-46.773c-4.873-7.615-12.423-12.886-21.254-14.823c-8.837-1.941-17.892-0.317-25.517,4.548
						l0,0c-7.618,4.875-12.885,12.426-14.825,21.256c-1.941,8.837-0.324,17.897,4.552,25.519
						C2962.42,2470.159,2980.615,2475.266,2995.669,2468.492z"/>
					<path style="opacity:0.56;fill:#FFFFFF;" d="M2934.311,2333.979c3.512-1.58,7.132-2.993,10.859-4.24
						c7.403-2.471,15.064-4.191,22.792-5.114c0.347-0.039,0.695-0.078,1.042-0.117c2.688-0.297,5.159,1.204,6.215,3.544
						c0.256,0.569,0.428,1.189,0.499,1.841c0.369,3.34-2.052,6.333-5.384,6.711c-7.223,0.793-14.392,2.37-21.309,4.681l-0.003,0.001
						c-0.38,0.125-0.76,0.258-1.135,0.387c-16.323,5.617-30.626,15.091-41.978,27.497c-6.161,6.735-11.452,14.342-15.713,22.678
						c-0.035,0.068-0.069,0.135-0.104,0.203c-0.104,0.21-0.211,0.415-0.313,0.623c-12.235,24.483-14.208,52.266-5.549,78.23
						c1.118,3.361,2.399,6.636,3.833,9.823c9.65,21.439,26.243,38.762,47.558,49.419c24.483,12.236,52.264,14.203,78.225,5.545
						c25.943-8.663,47.002-26.911,59.244-51.39c12.236-24.483,14.208-52.266,5.549-78.23c-1.099-3.305-2.366-6.541-3.786-9.695
						c-6.158-13.678-15.236-25.853-26.632-35.623c-0.702-0.603-1.234-1.328-1.587-2.121c-0.937-2.081-0.658-4.612,0.929-6.459
						c2.195-2.545,6.027-2.849,8.584-0.656c12.749,10.933,22.91,24.557,29.8,39.853c1.59,3.534,3.006,7.152,4.239,10.847
						c9.688,29.053,7.482,60.134-6.211,87.527c-13.692,27.387-37.206,47.821-66.276,57.493c-29.049,9.689-60.129,7.486-87.521-6.21
						c-23.847-11.916-42.409-31.3-53.206-55.286c-1.602-3.561-3.038-7.229-4.291-10.985
						C2853.932,2418.517,2881.367,2357.802,2934.311,2333.979z"/>
				</g>
			</g>
		</g>
		<g>
			
				<linearGradient id="SVGID_00000073723120731905918310000017839331874023320448_" gradientUnits="userSpaceOnUse" x1="2971.0278" y1="393.511" x2="2529.0815" y2="1646.9">
				<stop  offset="0" style="stop-color:#A737D5"/>
				<stop  offset="1" style="stop-color:#EF497A"/>
			</linearGradient>
			
				<circle style="fill:url(#SVGID_00000073723120731905918310000017839331874023320448_);" cx="2866.684" cy="689.438" r="192.619"/>
			<g>
				<g>
					<path style="fill:#FFFFFF;" d="M2987.383,756.334c0,14.075-11.411,25.485-25.487,25.485h-185.884
						c-14.076,0-25.487-11.41-25.487-25.485V617.151c0-14.075,11.411-25.485,25.487-25.485h185.884
						c14.076,0,25.487,11.41,25.487,25.485V756.334z M2967.367,620.372c0-4.799-3.891-8.69-8.691-8.69h-186.115
						c-4.8,0-8.691,3.891-8.691,8.69v136.077c0,4.799,3.891,8.69,8.691,8.69h186.115c4.8,0,8.691-3.891,8.691-8.69V620.372z"/>
				</g>
				<g>
					<path style="fill:#FFFFFF;" d="M2868.137,688.624c-1.701,0-3.403-0.515-4.858-1.548l-105.084-74.521
						c-3.782-2.683-4.675-7.926-1.991-11.708c2.683-3.786,7.927-4.675,11.708-1.991l100.223,71.073l98.914-70.26
						c3.782-2.69,9.024-1.798,11.709,1.985c2.687,3.779,1.798,9.021-1.983,11.708l-103.774,73.711
						C2871.544,688.106,2869.842,688.624,2868.137,688.624z"/>
				</g>
				<g>
					<path style="fill:#FFFFFF;" d="M2764.372,773.783l-2.478-16.609l1.159,8.316l-7.036-4.573
						c1.944-3.123,39.844-69.413,64.844-113.21c2.3-4.032,7.424-5.436,11.457-3.13c4.028,2.299,5.429,7.427,3.131,11.455
						c0,0-16.212,28.398-32.455,56.8c-8.124,14.204-16.256,28.412-22.372,39.066C2768.428,773.14,2768.428,773.14,2764.372,773.783z
						"/>
				</g>
				<g>
					<path style="fill:#FFFFFF;" d="M2971.278,773.783c-4.056-0.643-4.056-0.643-16.25-21.884
						c-6.116-10.655-14.248-24.862-22.372-39.066c-16.243-28.402-32.455-56.8-32.455-56.8c-2.298-4.028-0.897-9.156,3.131-11.455
						c4.027-2.303,9.157-0.902,11.457,3.13c25,43.797,62.9,110.087,64.844,113.21l-7.037,4.573L2971.278,773.783z"/>
				</g>
			</g>
		</g>
		<g>
			
				<linearGradient id="SVGID_00000053509197365845766710000009833868490017319610_" gradientUnits="userSpaceOnUse" x1="19555.0605" y1="1174.4016" x2="19130.3906" y2="1416.7976" gradientTransform="matrix(1 0 0 1 -16704.957 0)">
				<stop  offset="0" style="stop-color:#F9B776"/>
				<stop  offset="1" style="stop-color:#F47960"/>
			</linearGradient>
			<path style="fill:url(#SVGID_00000053509197365845766710000009833868490017319610_);" d="M2785.539,1569.564
				c-0.501-0.192-269.865-471.913-306.264-516.305c-6.124-7.466-15.601-11.269-25.19-10.126l-75.184,8.96l-88.325,191.08
				l147.147-85.697c-14.56,100.7,174.47,250.353,239.3,304.959c6.579,5.542,7.119,15.468,1.177,21.688l-25.882,27.094
				c42.491,43.071,91.523,70.727,146.863,83.518L2785.539,1569.564z"/>
			
				<linearGradient id="SVGID_00000099640622476927841290000016113930440554025400_" gradientUnits="userSpaceOnUse" x1="-8829.0264" y1="-5170.2124" x2="-8861.627" y2="-4670.3403" gradientTransform="matrix(-0.8974 -0.4412 -0.4412 0.8974 -7409.6787 2161.1482)">
				<stop  offset="0" style="stop-color:#CB236D"/>
				<stop  offset="1" style="stop-color:#4C246D"/>
			</linearGradient>
			<path style="fill:url(#SVGID_00000099640622476927841290000016113930440554025400_);" d="M2667.289,1496.593
				c0,0-16.519,5.336-22.111,20.048c-2.676,7.039,0.208,15.011,6.33,19.397c27.2,19.487,116.92,82.4,158.323,94.722
				c3.394,1.01,6.623-2.061,5.859-5.518c-2.125-9.618-8.998-28.825-31.139-56.943l1.986,4.018c2.514,5.085-3.023,10.379-7.963,7.591
				C2750.882,1564.276,2694.477,1530.06,2667.289,1496.593z"/>
			
				<linearGradient id="SVGID_00000147203289820052838370000016459071547608451988_" gradientUnits="userSpaceOnUse" x1="19513.9785" y1="1234.8531" x2="20966.9902" y2="325.2454" gradientTransform="matrix(1 0 0 1 -16704.957 0)">
				<stop  offset="0" style="stop-color:#F9B776"/>
				<stop  offset="1" style="stop-color:#F47960"/>
			</linearGradient>
			<path style="fill:url(#SVGID_00000147203289820052838370000016459071547608451988_);" d="M2680.619,1685.339
				c-0.452-0.29-40.865-97.659-41.317-97.948c-37.054-225.603-127.46-418.814-154.121-469.655
				c-4.486-8.551-12.997-14.192-22.619-15.014l-75.441-6.441l-125.168,169.25l161.445-54.144
				c-34.638,95.67,120.194,280.481,172.632,347.078c5.321,6.759,3.842,16.589-3.236,21.477l-30.829,21.295
				c32.895,50.778,75.316,87.785,126.921,111.511L2680.619,1685.339z"/>
			
				<linearGradient id="SVGID_00000170238887781495759780000018271800692653427391_" gradientUnits="userSpaceOnUse" x1="-6997.2344" y1="-7533.5708" x2="-7029.8325" y2="-7033.7319" gradientTransform="matrix(-0.7895 -0.6137 -0.6137 0.7895 -7427.2676 3191.1018)">
				<stop  offset="0" style="stop-color:#CB236D"/>
				<stop  offset="1" style="stop-color:#4C246D"/>
			</linearGradient>
			<path style="fill:url(#SVGID_00000170238887781495759780000018271800692653427391_);" d="M2579.585,1589.948
				c0,0-17.257,1.882-25.711,15.159c-4.044,6.351-2.833,14.743,2.274,20.277c22.693,24.588,97.824,104.357,135.877,124.803
				c3.12,1.677,6.903-0.677,6.855-4.218c-0.134-9.849-2.977-30.05-18.971-62.066l1.132,4.337c1.432,5.489-5.061,9.553-9.334,5.822
				C2647.75,1673.147,2599.437,1628.225,2579.585,1589.948z"/>
			<g>
				
					<linearGradient id="SVGID_00000012449299193306687810000017567901069490711707_" gradientUnits="userSpaceOnUse" x1="2691.5305" y1="13952.1182" x2="2156.0264" y2="14768.4346" gradientTransform="matrix(1 0 0 1 -8873.2578 0)">
					<stop  offset="0" style="stop-color:#CB236D"/>
					<stop  offset="1" style="stop-color:#4C246D"/>
				</linearGradient>
				<path style="fill:url(#SVGID_00000012449299193306687810000017567901069490711707_);" d="M2033.988,1060.636
					c0,0-68.246,101.508-73.847,147.812c-5.6,46.303,18.871,62.316,90.303,68.221c212.567,17.572,317.354-46.135,317.354-46.135
					c14.541-92.714,24.888-116.301,146.332-166.711c0,0-153.605,12.195-184.52,0.198
					C2298.697,1052.025,2033.988,1060.636,2033.988,1060.636z"/>
			</g>
			<g>
				
					<linearGradient id="SVGID_00000172408443767602095650000002727867297242517632_" gradientUnits="userSpaceOnUse" x1="-2357.0293" y1="-219.2481" x2="-2029.1881" y2="94.1292" gradientTransform="matrix(-0.9916 -0.1291 -0.1291 0.9916 775.4714 -114.5256)">
					<stop  offset="0" style="stop-color:#2B3582"/>
					<stop  offset="1" style="stop-color:#150E42"/>
				</linearGradient>
				<path style="fill:url(#SVGID_00000172408443767602095650000002727867297242517632_);" d="M2273.132,502.087
					c0,0-71.478,10.145-88.835,33.696c-13.926,18.896-67.073,4.474-85.913,44.445c-9.727,20.636-31.302,32.639-53.807,28.889
					c-56.05-9.342-147.386-8.631-190.964,79.702c-33.262,67.423-6.012,106.075,28.776,127.779
					c25.551,15.941,35.145,49.033,20.313,75.244c-14.226,25.139-16.4,58.887,22.144,98.793
					c86.371,89.424,251.676-62.046,251.676-62.046l127.846-317.262L2273.132,502.087z"/>
				<g>
					<path style="fill:#FFFFFF;" d="M1925.818,877.053c0.243,0.032,0.498-0.012,0.728-0.143
						c5.302-2.994,15.436-14.306,15.986-28.081c0.317-7.902-2.563-19.518-18.076-29.998c-4.806-3.247-9.942-5.869-14.908-8.407
						c-8.848-4.52-17.204-8.789-23.979-16.325c-10.006-11.13-14.076-25.811-16.738-38.703c-4.217-20.427,0.858-53.125,11.081-71.399
						c30.733-54.936,122.39-52.941,177.152-51.75l0.685,0.015c37.896,0.822,47.933-17.225,60.64-40.074l1.699-3.047
						c13.24-23.671,48.358-25.463,48.711-25.477c0.648-0.028,1.149-0.576,1.122-1.224c-0.03-0.648-0.581-1.138-1.224-1.123
						c-1.496,0.066-36.786,1.876-50.658,26.678l-1.701,3.052c-12.806,23.024-22.058,39.66-58.54,38.866l-0.684-0.014
						c-55.291-1.203-147.83-3.218-179.252,52.951c-10.455,18.688-15.644,52.126-11.332,73.018
						c2.726,13.201,6.911,28.252,17.292,39.799c7.066,7.859,16.009,12.427,24.657,16.845c4.903,2.506,9.973,5.095,14.662,8.264
						c11.735,7.926,17.47,17.333,17.044,27.957c-0.514,12.852-9.891,23.362-14.796,26.132c-0.564,0.318-0.763,1.033-0.444,1.599
						C1925.134,876.801,1925.463,877.007,1925.818,877.053z"/>
				</g>
				
					<linearGradient id="SVGID_00000081643820959349650080000002609208811519148212_" gradientUnits="userSpaceOnUse" x1="19069.8301" y1="711.5029" x2="18068.7188" y2="1677.1782" gradientTransform="matrix(1 0 0 1 -16704.957 0)">
					<stop  offset="0" style="stop-color:#FDF53F"/>
					<stop  offset="1" style="stop-color:#D93C65"/>
				</linearGradient>
				<path style="fill:url(#SVGID_00000081643820959349650080000002609208811519148212_);" d="M2218.554,1047.198
					c0,0,79.473-75.675,118.594-125.798c21.146-27.094,27.787-62.762,18.008-95.711c-17.861-60.173-49.602-122.496-52.496-132.196
					c-4.437-14.868-93.548-14.249-93.548-14.249S2033.76,793.05,1964.864,985.828l77.375,24.088c0,0,45.785-76.812,91.022-125.647
					c0,0-78.277,103.407-81.034,145.74L2218.554,1047.198z"/>
				
					<linearGradient id="SVGID_00000002369798716359660190000012706512196308781964_" gradientUnits="userSpaceOnUse" x1="-10414.8037" y1="1034.6821" x2="-9991.7686" y2="1034.6821" gradientTransform="matrix(-1 0 0 1 -8308.4951 0)">
					<stop  offset="0" style="stop-color:#F9B776"/>
					<stop  offset="1" style="stop-color:#F47960"/>
				</linearGradient>
				<path style="fill:url(#SVGID_00000002369798716359660190000012706512196308781964_);" d="M2369.977,1077.061l-59.716-64.972
					l-68.966,18.57c0,0-80.404,12.457-126.421,0c-46.018-12.457-46.018-12.457-46.018-12.457l-103.991-32.375l-16.332,46.158
					c-4.147,11.719,0.02,24.729,10.153,31.93c8.997,6.393,19.543,13.419,26.265,16.36c13.695,5.991,315.47,1.894,315.47,1.894
					L2369.977,1077.061z"/>
				
					<linearGradient id="SVGID_00000108989370500867375780000018058676070911084197_" gradientUnits="userSpaceOnUse" x1="-12273.7988" y1="-152.9455" x2="-12253.1191" y2="-304.2328" gradientTransform="matrix(-0.9974 -0.0717 -0.0717 0.9974 -9974.3652 105.0094)">
					<stop  offset="0" style="stop-color:#F9B776"/>
					<stop  offset="1" style="stop-color:#F47960"/>
				</linearGradient>
				<path style="fill:url(#SVGID_00000108989370500867375780000018058676070911084197_);" d="M2270.356,572.103l-59.891,111.37
					c3.954,24.311,65.186,24.997,74.644,10.48c0.963-1.477,1.513-3.186,1.879-4.911l35.827-74.414
					c1.538-7.256-18.354-31.706-24.902-35.192l-23.805-12.671C2264.94,561.886,2303.189,561.502,2270.356,572.103z"/>
				<g>
					
						<linearGradient id="SVGID_00000096780184398749345250000012958446199309796530_" gradientUnits="userSpaceOnUse" x1="-9569.6045" y1="-5485.5933" x2="-9374.8936" y2="-5832.1143" gradientTransform="matrix(-0.5458 -0.8379 -0.8379 0.5458 -7555.3809 -4320.769)">
						<stop  offset="0" style="stop-color:#F9B776"/>
						<stop  offset="1" style="stop-color:#F47960"/>
					</linearGradient>
					<path style="fill:url(#SVGID_00000096780184398749345250000012958446199309796530_);" d="M2391.566,545.966
						c0,0,6.761,37.627-22.813,85.467c-29.574,47.84-59.023,45.681-73.986,28.619c-14.962-17.061-32.884-45.477-24.729-93.193
						C2278.192,519.145,2381.35,497.983,2391.566,545.966z"/>
					
						<linearGradient id="SVGID_00000141448015845916353310000010556899114279291281_" gradientUnits="userSpaceOnUse" x1="-9527.7344" y1="-5787.3589" x2="-9430.3789" y2="-5543.146" gradientTransform="matrix(-0.5458 -0.8379 -0.8379 0.5458 -7555.3809 -4320.769)">
						<stop  offset="0" style="stop-color:#2B3582"/>
						<stop  offset="1" style="stop-color:#150E42"/>
					</linearGradient>
					<path style="fill:url(#SVGID_00000141448015845916353310000010556899114279291281_);" d="M2305.839,572.045
						c0,0,47.887-62.9,84.653-8.067l-0.62,18.942c0,0,47.809-2.235,42.625-46.3c-5.184-44.066-44.217-74.169-98.328-59.113
						c-54.111,15.055-85.729,32.201-91.84,69.77c-6.111,37.569,24.566,31.431,24.566,31.431s11.717-25.923,25.867-27.693
						c14.15-1.771,9.037,18.734,9.037,18.734L2305.839,572.045z"/>
					
						<linearGradient id="SVGID_00000180351419587633404460000007434261717090327480_" gradientUnits="userSpaceOnUse" x1="-9528.1572" y1="-5462.3071" x2="-9333.4473" y2="-5808.8262" gradientTransform="matrix(-0.5458 -0.8379 -0.8379 0.5458 -7555.3809 -4320.769)">
						<stop  offset="0" style="stop-color:#F9B776"/>
						<stop  offset="1" style="stop-color:#F47960"/>
					</linearGradient>
					<path style="fill:url(#SVGID_00000180351419587633404460000007434261717090327480_);" d="M2294.85,570.368
						c0,0,24.806-32.19,2.226-38.87c-22.58-6.681-21.737,31.541-20.266,45.761L2294.85,570.368z"/>
				</g>
				<g>
					<path style="fill:#FFFFFF;" d="M2422.194,552.596c0.272,0,0.54-0.125,0.712-0.361c10.102-13.774-6.188-26.391-6.354-26.517
						c-0.386-0.292-0.941-0.217-1.235,0.169c-0.295,0.388-0.219,0.942,0.168,1.236c0.62,0.472,15.073,11.696,5.999,24.069
						c-0.288,0.393-0.203,0.944,0.189,1.233C2421.831,552.541,2422.013,552.596,2422.194,552.596z"/>
				</g>
			</g>
			<g>
				
					<linearGradient id="SVGID_00000115472880641686626300000016184215465619043489_" gradientUnits="userSpaceOnUse" x1="-10433.416" y1="570.1026" x2="-10654.7188" y2="630.7558" gradientTransform="matrix(-0.9988 -0.0494 -0.0494 0.9988 -8267.0254 -55.0328)">
					<stop  offset="0" style="stop-color:#2B3582"/>
					<stop  offset="1" style="stop-color:#150E42"/>
				</linearGradient>
				<path style="fill:url(#SVGID_00000115472880641686626300000016184215465619043489_);" d="M2172.308,1102.776
					c0.209,0.01,0.42,0.016,0.631,0.014l274.67-0.3c6.79-0.005,12.288-5.516,12.281-12.306c-0.007-6.792-5.537-12.404-12.309-12.281
					l-274.669,0.3c-6.79,0.006-12.288,5.516-12.281,12.306C2160.639,1097.087,2165.812,1102.455,2172.308,1102.776z"/>
				
					<linearGradient id="SVGID_00000118358375945535835310000006857420954334737072_" gradientUnits="userSpaceOnUse" x1="542.5374" y1="994.1746" x2="2532.9197" y2="826.7146" gradientTransform="matrix(-1 0 0 1 3242.6147 0)">
					<stop  offset="0" style="stop-color:#2B3582"/>
					<stop  offset="1" style="stop-color:#150E42"/>
				</linearGradient>
				<path style="fill:url(#SVGID_00000118358375945535835310000006857420954334737072_);" d="M2694.525,853.393h-228.747
					c-16.875,0-32.234,9.738-39.432,25.001l-105.749,224.235h284.271c10.874,0,20.645-6.644,24.642-16.758l82.004-207.496
					C2716.252,866.385,2707.416,853.393,2694.525,853.393z"/>
				
					<linearGradient id="SVGID_00000158747312779609972970000007020281096381051528_" gradientUnits="userSpaceOnUse" x1="-10828.6523" y1="928.1569" x2="-10899.9004" y2="1035.448" gradientTransform="matrix(-1 0 0 1 -8308.4951 0)">
					<stop  offset="0" style="stop-color:#53D8FF"/>
					<stop  offset="1" style="stop-color:#3840F7"/>
				</linearGradient>
				<path style="fill:url(#SVGID_00000158747312779609972970000007020281096381051528_);" d="M2533.37,968.365
					c-4.957,15.401-1.295,30.358,8.18,33.407c9.474,3.05,21.173-6.963,26.13-22.364c4.957-15.4,1.295-30.357-8.179-33.406
					C2550.026,942.952,2538.327,952.964,2533.37,968.365z"/>
			</g>
		</g>
		<g>
			<g>
				<g>
					<path style="fill:#FFFFFF;" d="M1815.575,2091.717c22.462-17.844,109.486-155.644,238.953,6.076
						c14.254,7.904,52.149-12.255,47.772-27.168c-150.42-231.892-350.484-22.984-331.997,0.955
						C1788.787,2095.52,1789.448,2112.474,1815.575,2091.717z"/>
				</g>
				<g>
					<path style="fill:#FFFFFF;" d="M2198.249,2006.546c29.229-2.675,57.135-21.856,49.594-47.554
						c-7.427-25.317-277.227-357.323-596.358,0.996c-3.915,4.398-5.913,10.175-5.551,16.051c0.36,5.878,3.053,11.368,7.479,15.249
						c13.802,12.107,25.616,20.305,41.25,18.782C1986.339,1695.911,2169.019,2009.218,2198.249,2006.546z"/>
				</g>
				<g>
					<path style="fill:#FFFFFF;" d="M2345.506,1913.186c20.592,4.674,63.31-9.803,53.248-44.092
						c-475.908-545.146-926.141,1.958-910.726,24.883c15.415,22.926,47.82,24.599,61.066,17.333
						C1951.643,1421.328,2324.913,1908.51,2345.506,1913.186z"/>
				</g>
			</g>
			
				<ellipse transform="matrix(0.7071 -0.7071 0.7071 0.7071 -985.2249 2011.3815)" style="fill:#FFFFFF;" cx="1935.34" cy="2194.962" rx="80.699" ry="80.699"/>
		</g>
		<g>
			<g>
				
					<linearGradient id="SVGID_00000142861179507425272160000002680508174035655045_" gradientUnits="userSpaceOnUse" x1="1296.7599" y1="1365.5297" x2="1124.8259" y2="1719.9237" gradientTransform="matrix(0.987 0.1608 -0.1608 0.987 126.9837 357.2448)">
					<stop  offset="0" style="stop-color:#2B3582"/>
					<stop  offset="1" style="stop-color:#150E42"/>
				</linearGradient>
				<path style="fill:url(#SVGID_00000142861179507425272160000002680508174035655045_);" d="M857.038,2211.767
					c-0.879,1.664-56.17,42.35-56.17,42.35s12.21,87.353,61.794,121.848c54.514,37.924,131.502-31.237,131.502-31.237
					s61.269,14.564,93.852-112.975c7.475-29.261-35.675-31.734-87.753-26.344C933.106,2212.358,857.038,2211.767,857.038,2211.767z"
					/>
				
					<linearGradient id="SVGID_00000017483513729813827460000003328906159251312553_" gradientUnits="userSpaceOnUse" x1="933.7365" y1="2456.0842" x2="988.4634" y2="4111.563">
					<stop  offset="0" style="stop-color:#FDF53F"/>
					<stop  offset="1" style="stop-color:#D93C65"/>
				</linearGradient>
				<path style="fill:url(#SVGID_00000017483513729813827460000003328906159251312553_);" d="M753.689,2509.791
					c21.63-14.872,45.546-26.085,70.901-32.985c9.523-2.592,60.942,12.353,92.729,11.623c43.633-1.003,88.048-20.86,124.013-11.897
					c35.727,8.903,64.966,20.531,81.85,32.54c50.535,35.943,80.206,102.964,98.289,169.351
					c-34.239,35.146-77.325,50.765-77.325,50.765l-7.962,322.688l-190.811,97.626l-217.789-109.342l7.801-315.343
					c0,0-69.158-32.207-74.232-43.922C656.078,2669.18,692.672,2551.744,753.689,2509.791z"/>
				
					<linearGradient id="SVGID_00000121971235755519558240000004742891880021099653_" gradientUnits="userSpaceOnUse" x1="617.0222" y1="2610.4045" x2="979.6168" y2="3486.2827">
					<stop  offset="0" style="stop-color:#C4421B"/>
					<stop  offset="1" style="stop-color:#5C0E16"/>
				</linearGradient>
				<path style="fill:url(#SVGID_00000121971235755519558240000004742891880021099653_);" d="M664.373,2679.487
					c0,0-92.675,256.935,118.659,362.535c43.882-5.83,27.005-78.704,27.005-78.704s-91.826-20.321-64.249-234.655
					C720.398,2707.773,664.373,2679.487,664.373,2679.487z"/>
				
					<linearGradient id="SVGID_00000035506447519200760700000013095264199960255417_" gradientUnits="userSpaceOnUse" x1="-5426.8916" y1="2608.5217" x2="-5064.2969" y2="3484.4001" gradientTransform="matrix(-1 0 0 1 -4167.0742 0)">
					<stop  offset="0" style="stop-color:#C4421B"/>
					<stop  offset="1" style="stop-color:#5C0E16"/>
				</linearGradient>
				<path style="fill:url(#SVGID_00000035506447519200760700000013095264199960255417_);" d="M1217.014,2679.487
					c0,0,63.771,268.205-118.659,362.535c-43.883-5.83-27.004-78.704-27.004-78.704s74.007-36.447,64.248-234.655
					C1160.989,2707.773,1217.014,2679.487,1217.014,2679.487z"/>
				
					<linearGradient id="SVGID_00000132047221271317403490000015397617258379332783_" gradientUnits="userSpaceOnUse" x1="939.1072" y1="2723.4797" x2="920.2473" y2="3487.3225">
					<stop  offset="0" style="stop-color:#2B3582"/>
					<stop  offset="1" style="stop-color:#150E42"/>
				</linearGradient>
				<path style="fill:url(#SVGID_00000132047221271317403490000015397617258379332783_);" d="M1135.164,3060.069H733.406
					c-4.584,0-8.334-3.75-8.334-8.334v-265.912c0-4.584,3.75-8.334,8.334-8.334h401.758c4.584,0,8.334,3.75,8.334,8.334v265.912
					C1143.498,3056.318,1139.748,3060.069,1135.164,3060.069z"/>
				<g>
					
						<linearGradient id="SVGID_00000031890570202504081450000015056893178541341116_" gradientUnits="userSpaceOnUse" x1="1314.3141" y1="2608.9084" x2="1249.2651" y2="3379.491" gradientTransform="matrix(1 0.0077 -0.0077 1 9.5247 16.8137)">
						<stop  offset="0" style="stop-color:#53D8FF"/>
						<stop  offset="1" style="stop-color:#3840F7"/>
					</linearGradient>
					<path style="fill:url(#SVGID_00000031890570202504081450000015056893178541341116_);" d="M1327.025,3143.842
						c-47.885-10.992-158.56-5.082-158.56-5.082l-4.5,12.19l-7.455,60.594c0,0,105.399,18.997,157.351,18.951
						c5.301-0.005,10.149-0.8,14.577-2.178c1.585-1.422,3.132-2.895,4.597-4.495
						C1355.075,3199.75,1348.71,3164.388,1327.025,3143.842z"/>
					
						<linearGradient id="SVGID_00000018922139705383972000000010861438920364599472_" gradientUnits="userSpaceOnUse" x1="1404.0659" y1="3096.9229" x2="1071.0079" y2="3511.6123">
						<stop  offset="0" style="stop-color:#CB236D"/>
						<stop  offset="1" style="stop-color:#4C246D"/>
					</linearGradient>
					<path style="fill:url(#SVGID_00000018922139705383972000000010861438920364599472_);" d="M1331.77,3145.044
						c-1.501-0.423-3.088-0.821-4.745-1.202c21.685,20.546,28.051,55.908,6.01,79.98c-1.465,1.6-3.012,3.073-4.597,4.495
						C1367.412,3216.187,1372.026,3156.368,1331.77,3145.044z"/>
					
						<linearGradient id="SVGID_00000041286902251031132560000000291938951285290153_" gradientUnits="userSpaceOnUse" x1="1172.4912" y1="3097.7908" x2="1312.5967" y2="2097.0359">
						<stop  offset="0" style="stop-color:#C4421B"/>
						<stop  offset="0.3478" style="stop-color:#A03019"/>
						<stop  offset="1" style="stop-color:#5C0E16"/>
					</linearGradient>
					<path style="fill:url(#SVGID_00000041286902251031132560000000291938951285290153_);" d="M1136.664,3135.347l18.741,0.799
						c10.069,0.43,19.558,5.335,26.329,13.613c6.77,8.277,10.251,19.228,9.659,30.384c-0.472,8.895-4.122,17.214-10.141,23.116
						c-6.019,5.902-13.911,8.9-21.929,8.328l-28.675-2.041L1136.664,3135.347z"/>
				</g>
				<g>
					
						<linearGradient id="SVGID_00000112594078240714898600000011463584683212973756_" gradientUnits="userSpaceOnUse" x1="-5279.9102" y1="1026.4901" x2="-5344.959" y2="1797.073" gradientTransform="matrix(-0.9998 -0.02 -0.02 0.9998 -4813.9961 -50.8396)">
						<stop  offset="0" style="stop-color:#53D8FF"/>
						<stop  offset="1" style="stop-color:#3840F7"/>
					</linearGradient>
					<path style="fill:url(#SVGID_00000112594078240714898600000011463584683212973756_);" d="M506.502,3138.013
						c48.14-9.518,158.626-0.214,158.626-0.214l4.195,12.324l5.941,60.8c0,0-105.833,15.754-157.766,14.115
						c-5.299-0.167-10.126-1.111-14.517-2.624c-1.548-1.47-3.06-2.99-4.482-4.634
						C477.066,3193.039,484.312,3157.886,506.502,3138.013z"/>
					
						<linearGradient id="SVGID_00000060002498824118323890000009633668231510084752_" gradientUnits="userSpaceOnUse" x1="-5366.8569" y1="3084.9299" x2="-5360.3262" y2="3692.2708" gradientTransform="matrix(-0.9998 -0.02 -0.02 0.9998 -4813.9961 -50.8396)">
						<stop  offset="0" style="stop-color:#CB236D"/>
						<stop  offset="1" style="stop-color:#4C246D"/>
					</linearGradient>
					<path style="fill:url(#SVGID_00000060002498824118323890000009633668231510084752_);" d="M501.727,3139.068
						c1.511-0.375,3.108-0.726,4.775-1.055c-22.19,19.873-29.435,55.026-8.003,79.767c1.423,1.643,2.934,3.164,4.482,4.634
						C464.325,3209.091,461.205,3149.154,501.727,3139.068z"/>
					
						<linearGradient id="SVGID_00000010268273362492393110000001377055664170647681_" gradientUnits="userSpaceOnUse" x1="908.3071" y1="3153.5132" x2="2054.1697" y2="3053.438">
						<stop  offset="0" style="stop-color:#C4421B"/>
						<stop  offset="1" style="stop-color:#5C0E16"/>
					</linearGradient>
					<path style="fill:url(#SVGID_00000010268273362492393110000001377055664170647681_);" d="M697.001,3135.364l-18.754,0.224
						c-10.075,0.12-19.683,4.733-26.657,12.8c-6.974,8.066-10.727,18.904-10.413,30.075c0.25,8.906,3.691,17.334,9.56,23.418
						c5.871,6.084,13.684,9.323,21.714,8.998l28.715-1.16L697.001,3135.364z"/>
				</g>
				
					<linearGradient id="SVGID_00000174590302913140533730000003966987859902184353_" gradientUnits="userSpaceOnUse" x1="1090.0565" y1="2598.2478" x2="959.4464" y2="3408.0349">
					<stop  offset="0" style="stop-color:#CB236D"/>
					<stop  offset="1" style="stop-color:#4C246D"/>
				</linearGradient>
				<path style="fill:url(#SVGID_00000174590302913140533730000003966987859902184353_);" d="M1340.417,2953.885
					c-21.716-49.98-74.829-58.094-120.036-34.724c-0.787,1.032-287.082,147.762-539.561,212.07
					c7.228,23.172,10.944,47.828,11.755,72.063c0.146,5.399,0.056,10.724-0.261,15.979
					c193.614-9.944,403.744-74.514,584.308-131.259C1332.615,3069.958,1364.485,3009.28,1340.417,2953.885z"/>
				
					<linearGradient id="SVGID_00000108276405462919637560000010628621324637558658_" gradientUnits="userSpaceOnUse" x1="681.1359" y1="3020.2244" x2="1190.5184" y2="3203.0793">
					<stop  offset="0" style="stop-color:#CB236D"/>
					<stop  offset="1" style="stop-color:#4C246D"/>
				</linearGradient>
				<path style="fill:url(#SVGID_00000108276405462919637560000010628621324637558658_);" d="M1138.04,3207.092
					c-0.757-27.933,4.674-53.939,16.293-78.015c0.333-1.102,0.73-2.161,1.081-3.25c-14.417-4.466-33.043-10.516-57.51-18.815
					c-179.285-61.357-316.059-123.309-446.595-194.626c-50.711-27.705-108.37-9.137-124.602,50.867
					c-14.492,53.566,17.331,99.298,65.63,115.37c144.496,48.083,69.261,34.728,116.454,49.914
					c126.737,39.192,284.448,74.889,429.551,84.637C1138.233,3211.145,1138.108,3209.114,1138.04,3207.092z"/>
				
					<linearGradient id="SVGID_00000158722660356551198160000009073164017142552742_" gradientUnits="userSpaceOnUse" x1="935.3286" y1="2682.7231" x2="930.504" y2="2262.959">
					<stop  offset="0" style="stop-color:#C4421B"/>
					<stop  offset="1" style="stop-color:#5C0E16"/>
				</linearGradient>
				<path style="fill:url(#SVGID_00000158722660356551198160000009073164017142552742_);" d="M824.589,2476.807
					c0,0,19.281,83.557,112.894,81.822c95.348-1.736,103.848-82.096,103.848-82.096l-62.283-13.328l-5.206-69.398l-93.689,6.94
					l-1.735,65.929L824.589,2476.807z"/>
				
					<linearGradient id="SVGID_00000104700467174682236390000004429523702270284183_" gradientUnits="userSpaceOnUse" x1="1120.4696" y1="1937.4836" x2="1135.4985" y2="1572.215" gradientTransform="matrix(0.987 0.1608 -0.1608 0.987 126.9837 357.2448)">
					<stop  offset="0" style="stop-color:#C4421B"/>
					<stop  offset="1" style="stop-color:#5C0E16"/>
				</linearGradient>
				<path style="fill:url(#SVGID_00000104700467174682236390000004429523702270284183_);" d="M893.307,2197.176
					c0,0-107.368,207.977,19.995,258.433c89.834,35.59,146.16-138.11,129.359-185.158c-25.975-72.743-43.082-64.111-43.082-64.111
					L893.307,2197.176z"/>
				
					<linearGradient id="SVGID_00000110438558887255350340000009972744674097885874_" gradientUnits="userSpaceOnUse" x1="1298.0188" y1="1315.6533" x2="1104.5563" y2="1714.4224" gradientTransform="matrix(0.987 0.1608 -0.1608 0.987 126.9837 357.2448)">
					<stop  offset="0" style="stop-color:#2B3582"/>
					<stop  offset="1" style="stop-color:#150E42"/>
				</linearGradient>
				<path style="fill:url(#SVGID_00000110438558887255350340000009972744674097885874_);" d="M1068.498,2178.253
					c53.041,14.579,7.71,129.613-72.146,102.409c-79.856-27.204-111.237-26.805-123.681-4.878
					c-12.445,21.928-15.118,99.799-42.118,61.31c-29.602-42.198-46.107-126.897-9.814-154.201
					c32.437-24.402,40.008-62.235,78.912-60.924c51.64,1.741,91.576-21.149,114.885-4.641
					C1041.307,2136.288,1029.47,2167.526,1068.498,2178.253z"/>
				
					<linearGradient id="SVGID_00000057123758859266279320000015898675553721299841_" gradientUnits="userSpaceOnUse" x1="530.0132" y1="2808.9749" x2="553.5648" y2="2236.5679" gradientTransform="matrix(0.9911 -0.1329 0.1329 0.9911 -26.0254 -216.2621)">
					<stop  offset="0" style="stop-color:#C4421B"/>
					<stop  offset="1" style="stop-color:#5C0E16"/>
				</linearGradient>
				<path style="fill:url(#SVGID_00000057123758859266279320000015898675553721299841_);" d="M867.761,2293.667
					c0,0-22.898-24.637-26.564,5.058c-3.665,29.695,8.102,67.939,21.888,46.976C876.872,2324.739,867.761,2293.667,867.761,2293.667
					z"/>
			</g>
			
				<linearGradient id="SVGID_00000065786887612556839860000006444384931267526056_" gradientUnits="userSpaceOnUse" x1="936.9789" y1="2665.1953" x2="924.7937" y2="3248.3198">
				<stop  offset="0" style="stop-color:#53D8FF"/>
				<stop  offset="1" style="stop-color:#3840F7"/>
			</linearGradient>
			<path style="fill:url(#SVGID_00000065786887612556839860000006444384931267526056_);" d="M958.965,2854.014
				c2.218,14.992-5.813,28.6-20.805,30.819c-14.992,2.218-28.943-8.136-31.162-23.128c-2.219-14.992,4.644-29.882,19.636-32.1
				C941.625,2827.386,956.747,2839.023,958.965,2854.014z"/>
		</g>
		<g>
			
				<linearGradient id="SVGID_00000062909892996375124510000000098946325680446133_" gradientUnits="userSpaceOnUse" x1="1143.3754" y1="2521.4524" x2="1800.5734" y2="2011.0396">
				<stop  offset="0" style="stop-color:#FDF53F"/>
				<stop  offset="1" style="stop-color:#D93C65"/>
			</linearGradient>
			<path style="fill:url(#SVGID_00000062909892996375124510000000098946325680446133_);" d="M1526.847,2491.294h-303.381
				c-23.202,0-42.011-14.521-42.011-32.433v-234.843c0-16.898,16.805-30.964,38.622-32.327l323.234-20.197
				c25.464-1.591,46.857,14.586,45.324,34.273l-19.852,255.04C1567.449,2477.933,1549.07,2491.294,1526.847,2491.294z"/>
			<path style="fill:#FFFFFF;" d="M1266.664,2444.573c-8.433,0-16.313-2.952-21.829-8.219c-4.499-4.301-6.977-9.829-6.977-15.573
				v-150.564c0-3.685,2.987-6.672,6.672-6.672s6.672,2.987,6.672,6.672v150.564c0,2.645,1.551,4.678,2.851,5.923
				c3.206,3.066,8.327,4.734,13.662,4.499l231.113-10.627c7.988-0.365,14.487-5.043,14.487-10.422v-147.824
				c0-2.714-1.622-4.786-2.984-6.05c-3.382-3.131-8.676-4.753-14.193-4.33l-192.255,14.699c-7.822,0.6-12.086,4.642-13.36,7.923
				c-1.052,2.71-0.378,5.457,1.95,7.939l73.328,78.12c2.875,3.065,7.697,4.923,12.894,4.968c5.242-0.091,10.163-1.756,13.142-4.822
				l80.771-83.081c2.57-2.639,6.794-2.694,9.435-0.13c2.642,2.567,2.703,6.792,0.134,9.435l-80.772,83.081
				c-5.551,5.708-13.836,8.845-22.827,8.861c-8.902-0.078-17.107-3.424-22.508-9.177l-73.328-78.123
				c-5.83-6.216-7.569-14.403-4.657-21.902c3.581-9.22,13.076-15.501,24.781-16.397l192.256-14.699
				c9.135-0.697,18.219,2.235,24.278,7.848c4.681,4.336,7.26,9.962,7.26,15.836v147.824c0,12.617-11.956,23.052-27.219,23.753
				l-231.114,10.627C1267.77,2444.56,1267.214,2444.573,1266.664,2444.573z"/>
		</g>
	</g>
</g>
</svg>
